<?xml version="1.0" standalone="no"?>
<!DOCTYPE svg PUBLIC "-//W3C//DTD SVG 20010904//EN"
 "http://www.w3.org/TR/2001/REC-SVG-20010904/DTD/svg10.dtd">
<svg version="1.0" xmlns="http://www.w3.org/2000/svg"
 width="700.000000pt" height="700.000000pt" viewBox="0 0 700.000000 700.000000"
 preserveAspectRatio="xMidYMid meet">
<metadata>
Created by potrace 1.11, written by Peter Selinger 2001-2013
</metadata>
<g transform="translate(0.000000,700.000000) scale(0.100000,-0.100000)"
fill="#000000" stroke="none">
<path d="M619 6984 c-249 -53 -463 -232 -560 -466 -64 -155 -60 57 -57 -3048
l3 -2825 23 -75 c84 -272 297 -477 567 -545 l98 -25 2804 0 c3080 0 2867 -4
3022 60 187 77 344 234 421 421 64 155 60 -58 60 3022 l0 2804 -25 98 c-68
270 -273 483 -545 567 l-75 23 -2835 2 c-2425 1 -2845 -1 -2901 -13z m4993
-1013 c186 -24 337 -172 357 -349 3 -31 4 -1011 1 -2177 l-5 -2120 -31 -65
c-40 -83 -111 -154 -194 -194 l-65 -31 -2120 -5 c-1166 -3 -2146 -2 -2177 1
-177 20 -325 171 -349 357 -11 84 -11 4027 0 4179 10 135 41 211 117 287 73
73 155 108 274 116 144 10 4115 11 4192 1z"/>
<path d="M2275 5280 c-140 -20 -270 -131 -311 -266 -31 -101 -14 -237 40 -322
74 -117 191 -182 331 -182 39 0 88 6 110 13 145 46 251 167 274 312 23 148
-40 296 -161 378 -87 60 -179 81 -283 67z"/>
<path d="M4602 5280 c-73 -11 -154 -53 -212 -110 -150 -151 -151 -394 -2 -546
77 -78 165 -114 277 -114 107 0 196 35 268 105 81 78 117 166 118 280 0 88
-20 154 -67 222 -84 122 -230 184 -382 163z"/>
<path d="M2215 3870 c-299 -96 -362 -490 -110 -683 251 -190 617 -4 617 313 0
264 -255 450 -507 370z"/>
<path d="M4545 3870 c-299 -96 -362 -490 -110 -683 251 -190 617 -4 617 313 0
264 -255 450 -507 370z"/>
<path d="M2220 2476 c-123 -41 -220 -137 -256 -255 -19 -60 -19 -173 0 -235
33 -107 128 -206 239 -248 65 -25 192 -27 257 -3 99 35 196 125 235 218 88
210 -28 454 -250 524 -49 16 -177 15 -225 -1z"/>
<path d="M4550 2476 c-218 -72 -332 -315 -245 -523 39 -93 136 -183 235 -218
65 -24 192 -22 257 3 111 42 206 141 239 248 19 62 19 175 0 235 -37 120 -135
216 -261 256 -49 16 -177 15 -225 -1z"/>
</g>
</svg>
